<?xml version="1.0" standalone="no"?>
<!DOCTYPE svg PUBLIC "-//W3C//DTD SVG 20010904//EN"
 "http://www.w3.org/TR/2001/REC-SVG-20010904/DTD/svg10.dtd">
<svg version="1.0" xmlns="http://www.w3.org/2000/svg"
 width="180.000000pt" height="180.000000pt" viewBox="0 0 180.000000 180.000000"
 preserveAspectRatio="xMidYMid meet">

<g transform="translate(0.000000,180.000000) scale(0.100000,-0.100000)"
fill="#000000" stroke="none">
<path d="M730 1775 c-191 -41 -341 -125 -476 -268 -353 -371 -315 -975 82
-1296 281 -227 658 -270 969 -109 319 165 515 501 491 844 -27 390 -283 707
-658 815 -95 27 -313 35 -408 14z m148 -61 c1 -20 -3 -45 -9 -55 -11 -22 -51
-25 -67 -6 -14 17 -20 87 -7 87 5 0 11 -17 13 -37 3 -43 14 -58 36 -50 11 5
16 20 16 52 0 53 16 61 18 9z m103 26 c11 0 19 -5 19 -10 0 -6 -11 -8 -26 -4
-26 7 -26 6 -23 -40 3 -31 0 -46 -8 -46 -9 0 -10 14 -6 50 6 50 -2 61 -25 38
-9 -9 -12 -8 -12 6 0 15 5 17 31 12 17 -3 40 -6 50 -6z m95 -21 c3 -5 -5 -8
-17 -6 -12 1 -24 -4 -26 -10 -3 -7 2 -13 11 -13 9 0 16 -4 16 -10 0 -5 -6 -7
-14 -4 -16 6 -30 -22 -15 -32 5 -3 16 -3 24 0 8 3 15 1 15 -4 0 -11 -30 -13
-52 -5 -12 5 -12 15 -5 54 9 43 13 47 34 43 13 -2 26 -8 29 -13z m-333 1 c-19
-8 -21 -13 -13 -39 5 -17 11 -35 15 -41 3 -5 0 -10 -8 -10 -9 0 -17 15 -21 40
-6 39 -28 55 -39 28 -3 -8 -6 -7 -6 4 -1 16 21 24 74 26 18 1 18 0 -2 -8z
m-78 -112 c-6 -4 -13 7 -18 29 -4 20 -12 42 -18 49 -7 8 -6 13 3 16 16 6 48
-84 33 -94z m-55 72 c0 -5 -3 -9 -7 -9 -28 5 -32 -2 -21 -28 7 -16 19 -34 27
-40 8 -7 12 -13 9 -13 -4 0 -14 -3 -23 -6 -9 -4 -15 -3 -13 2 4 14 -20 74 -29
74 -5 0 -14 -5 -21 -12 -9 -9 -12 -9 -12 0 0 7 15 18 33 26 39 17 57 19 57 6z
m644 -12 c33 -15 42 -43 22 -73 -19 -29 -51 -32 -78 -8 -24 21 -23 48 2 73 23
23 22 23 54 8z m-754 -38 c0 -5 -5 -9 -11 -7 -6 1 -13 -3 -16 -10 -3 -7 9 -13
29 -15 25 -2 34 -8 36 -25 3 -23 -32 -51 -42 -34 -3 5 3 11 14 14 31 8 24 25
-12 29 -35 3 -51 33 -26 49 18 12 28 11 28 -1z m855 -16 c14 -9 22 -20 19 -26
-3 -5 -11 -2 -18 7 -11 15 -14 15 -24 2 -10 -12 -9 -16 3 -21 8 -3 15 -11 15
-17 0 -8 -4 -8 -15 1 -17 14 -35 5 -35 -16 0 -8 -4 -13 -9 -9 -8 4 27 93 37
95 1 0 14 -7 27 -16z m-270 -18 c238 -63 433 -251 511 -493 25 -78 30 -279 9
-366 -50 -208 -190 -386 -378 -481 -75 -38 -208 -76 -261 -76 -28 0 -26 3 29
31 153 79 268 179 315 271 l30 61 0 464 0 463 -437 0 c-491 1 -469 -4 -322 70
70 36 149 61 224 74 54 8 219 -2 280 -18z m-655 -5 c0 -5 12 -24 27 -42 l28
-32 -58 7 -58 6 18 -25 c10 -13 22 -25 27 -25 12 0 -34 -50 -46 -50 -4 0 -8 6
-8 13 0 18 -45 59 -54 50 -4 -4 -4 0 0 10 8 23 11 22 41 -13 24 -29 53 -40 53
-21 0 5 -13 23 -29 40 -36 38 -23 49 39 33 44 -11 50 -4 20 23 -22 20 -26 35
-10 35 6 0 10 -4 10 -9z m1079 -105 c21 -22 29 -36 22 -41 -6 -3 -10 -1 -9 6
6 24 -22 19 -50 -10 -16 -17 -32 -28 -36 -24 -3 4 8 21 25 39 28 29 33 64 7
48 -7 -4 -8 -2 -4 4 9 16 7 17 45 -22z m-1021 -1005 c49 -91 164 -191 307
-266 l70 -37 -54 7 c-141 16 -286 86 -399 190 -232 215 -295 563 -152 845 34
68 103 162 152 205 l43 39 5 -469 c5 -469 5 -470 28 -514z m840 517 c-3 -463
-3 -463 -26 -508 -47 -91 -195 -213 -345 -286 l-58 -29 -86 44 c-170 87 -299
207 -328 305 -12 41 -15 130 -15 486 0 240 3 440 7 443 3 4 197 7 430 7 l424
0 -3 -462z m262 390 c0 -5 -5 -8 -11 -8 -5 0 -8 4 -4 9 9 15 -15 25 -28 12 -9
-9 -9 -14 2 -20 8 -5 9 -11 3 -15 -5 -3 -13 1 -16 10 -5 14 -9 14 -22 3 -14
-12 -14 -15 6 -31 16 -13 18 -18 7 -18 -8 0 -21 10 -30 23 -14 22 -13 24 19
46 19 13 34 29 34 35 0 12 39 -34 40 -46z m-1316 -50 c11 -2 13 -7 6 -18 -9
-13 -12 -13 -21 3 -7 12 -23 17 -51 17 -33 0 -38 3 -29 14 7 8 22 11 39 8 27
-5 27 -5 9 16 -11 11 -16 26 -12 32 5 7 14 -4 25 -28 10 -22 25 -42 34 -44z
m1366 -20 c11 -21 12 -30 3 -39 -9 -9 -11 -7 -7 7 3 10 -2 28 -9 39 -13 17
-18 18 -41 7 -30 -14 -34 -46 -9 -74 9 -10 11 -18 5 -18 -14 0 -42 40 -42 59
0 8 8 23 17 33 24 26 64 19 83 -14z m-1481 -24 c-10 -13 -10 -17 2 -25 9 -6
18 -3 28 9 12 16 13 15 7 -4 -10 -34 20 -39 33 -6 7 21 10 23 10 7 0 -11 -6
-31 -14 -45 -8 -14 -14 -19 -15 -12 0 7 -17 21 -38 30 -35 16 -38 20 -29 40 6
12 14 22 20 22 5 0 4 -7 -4 -16z m1521 -50 c0 -8 -4 -13 -8 -10 -4 2 -14 1
-21 -3 -10 -7 -10 -13 -2 -30 13 -23 26 -27 37 -10 4 8 9 7 15 -2 6 -10 -5
-18 -38 -31 -26 -10 -49 -15 -52 -11 -3 3 -1 7 4 10 32 11 37 21 26 42 -9 17
-16 19 -30 11 -18 -9 -31 -4 -31 12 0 5 3 7 8 5 4 -3 23 3 42 13 45 23 50 23
50 4z m-1560 -29 c-19 -23 -6 -28 35 -14 30 11 37 11 45 -1 12 -19 -6 -50 -28
-49 -16 1 -16 2 1 6 9 2 17 13 17 24 0 23 -13 25 -30 4 -16 -19 -34 -19 -49
-1 -12 15 -5 46 11 46 6 0 5 -7 -2 -15z m2 -87 c4 -10 10 -10 33 0 39 18 43 7
5 -16 -19 -12 -27 -23 -21 -26 6 -4 16 -4 21 -1 13 8 13 -5 0 -25 -6 -10 -10
-11 -10 -3 0 7 -18 16 -40 19 -42 7 -46 13 -30 45 12 21 36 25 42 7z m1580
-35 c-33 -49 -34 -52 -10 -46 13 3 29 10 36 16 8 7 12 5 12 -7 0 -9 -6 -16
-12 -16 -7 0 -31 -3 -53 -7 l-40 -6 26 34 c42 56 44 62 20 55 -11 -3 -30 -9
-41 -12 -11 -3 -20 -1 -20 4 0 11 94 30 98 20 2 -4 -5 -20 -16 -35z m-1636
-60 c-4 -9 -1 -20 6 -25 22 -13 31 -9 25 12 -3 11 -1 20 4 20 5 0 9 -9 9 -20
0 -11 7 -20 15 -20 8 0 15 9 15 20 0 11 5 20 11 20 6 0 8 -7 5 -16 -3 -9 -6
-24 -6 -34 0 -17 -4 -18 -30 -8 -17 5 -39 8 -50 5 -15 -4 -20 0 -20 13 0 21
10 50 17 50 3 0 2 -8 -1 -17z m1674 -38 c7 -9 10 -18 6 -22 -3 -3 -6 -2 -6 4
0 17 -28 23 -55 13 -30 -12 -33 -45 -5 -60 22 -12 54 0 63 22 4 9 6 8 6 -2 2
-40 -69 -56 -89 -21 -13 26 -13 54 2 69 17 17 63 15 78 -3z m-1580 -60 c10
-11 5 -12 -26 -4 -20 6 -48 9 -60 6 -14 -2 -24 1 -24 7 0 16 96 8 110 -9z
m1600 -63 c0 -11 -12 -13 -46 -9 -44 4 -46 3 -41 -19 2 -13 1 -24 -4 -24 -14
0 -21 20 -15 43 4 19 12 22 56 22 35 0 50 -4 50 -13z m-1612 -87 c3 -2 -7 -9
-21 -16 -14 -6 -23 -17 -21 -23 2 -6 -6 -11 -21 -11 -14 0 -25 6 -25 13 0 6 6
12 13 12 7 0 22 7 33 16 18 14 17 15 -18 12 -24 -3 -38 0 -38 8 0 8 13 9 47 3
25 -5 48 -11 51 -14z m1590 -3 c6 -9 12 -20 12 -26 0 -6 -7 0 -16 12 -18 26
-56 29 -75 6 -28 -34 33 -71 68 -42 14 11 15 11 11 -2 -2 -8 -17 -19 -31 -24
-21 -8 -31 -6 -47 9 -26 23 -26 49 1 76 22 22 55 19 77 -9z m-1578 -46 c0 -2
-20 -16 -45 -29 -25 -14 -45 -21 -45 -16 0 5 11 15 25 21 14 6 25 15 25 20 0
4 9 8 20 8 11 0 20 -2 20 -4z m1545 -70 c12 -17 13 -30 6 -49 -10 -27 -31 -45
-31 -28 0 6 4 11 9 11 14 0 21 43 9 57 -15 18 -48 16 -71 -4 -15 -13 -18 -14
-12 -3 26 48 65 55 90 16z m-1524 -12 c5 -15 8 -28 7 -29 -2 -1 -22 -9 -46
-18 -40 -16 -43 -16 -49 0 -3 10 -8 21 -10 25 -2 4 1 10 7 13 6 4 10 3 9 -2
-4 -22 2 -32 17 -26 8 3 13 12 10 19 -3 7 -1 16 4 19 6 4 10 -1 10 -9 0 -9 7
-16 15 -16 18 0 20 36 3 43 -10 4 -10 6 0 6 7 1 17 -11 23 -25z m1462 -50 c-4
-11 -7 -11 -19 1 -19 19 -18 24 5 18 12 -3 17 -11 14 -19z m-1433 -18 c0 -2
-9 -25 -20 -50 -22 -51 -21 -52 20 -31 16 8 31 11 34 7 3 -5 -12 -14 -32 -22
-20 -7 -40 -18 -44 -24 -16 -25 -19 6 -4 44 23 57 20 64 -13 41 -25 -18 -30
-19 -35 -5 -3 8 -2 13 2 10 4 -2 23 4 42 15 35 18 50 23 50 15z m1447 -37 c26
7 31 7 26 -5 -3 -8 -16 -14 -29 -14 -26 0 -33 -17 -10 -26 8 -3 12 -12 9 -20
-3 -10 -12 -4 -27 19 -12 17 -30 31 -39 31 -19 -2 -19 -2 -11 20 5 13 8 14 28
1 16 -11 31 -12 53 -6z m-991 -401 c4 -6 3 -8 -4 -4 -6 3 -13 2 -17 -4 -3 -5
-1 -10 6 -10 7 0 4 -6 -7 -14 -24 -18 -27 -15 -15 18 11 28 25 33 37 14z m508
-14 c10 -37 2 -39 -11 -4 -6 17 -8 30 -3 30 4 0 11 -12 14 -26z m-34 -30 c0
-19 -20 -28 -33 -15 -9 9 -8 11 6 6 9 -4 17 -4 17 0 0 4 -8 14 -17 21 -16 12
-16 12 5 7 12 -3 22 -11 22 -19z m-463 -16 c-3 -7 -5 -2 -5 12 0 14 2 19 5 13
2 -7 2 -19 0 -25z m25 0 c-8 -8 -9 -4 -5 13 4 13 8 18 11 10 2 -7 -1 -18 -6
-23z m168 -2 c0 -27 -4 -34 -17 -32 -25 4 -28 25 -7 46 25 25 24 25 24 -14z
m99 -18 c1 -24 -24 -23 -48 1 -19 19 -19 20 -1 18 10 -1 18 -4 17 -8 -1 -4 2
-6 8 -5 5 0 9 12 7 26 -1 23 -1 23 7 5 5 -11 10 -28 10 -37z m61 8 c0 -26 -6
-18 -14 19 -5 22 -4 26 4 15 5 -8 10 -24 10 -34z m59 6 c0 -10 -3 -12 -6 -4
-2 6 -9 12 -14 12 -6 0 -7 -6 -3 -12 4 -7 3 -10 -1 -5 -5 4 -10 17 -12 28 -3
17 0 18 17 9 11 -6 20 -18 19 -28z m-349 -2 c5 0 11 8 13 18 4 13 5 11 6 -5 1
-17 -5 -23 -19 -23 -14 0 -20 6 -19 23 1 16 2 18 6 5 2 -10 8 -18 13 -18z m50
0 c0 -11 -4 -20 -9 -20 -5 0 -7 9 -4 20 3 11 7 20 9 20 2 0 4 -9 4 -20z m29
13 c0 -5 -4 -17 -9 -28 -8 -17 -8 -16 -7 8 1 15 5 27 9 27 4 0 8 -3 7 -7z m85
-36 c7 -6 6 -7 -4 -4 -8 2 -16 12 -17 23 -2 13 -1 15 4 4 3 -8 11 -19 17 -23z"/>
<path d="M1215 1654 c-21 -21 -16 -68 8 -72 42 -8 66 57 28 78 -15 7 -24 6
-36 -6z"/>
<path d="M510 1240 l0 -180 190 0 190 0 0 180 0 180 -190 0 -190 0 0 -180z
m254 131 c4 -1 5 -16 2 -33 -11 -54 -6 -105 14 -171 11 -34 20 -65 20 -69 0
-5 -40 -8 -90 -8 -100 0 -100 -1 -75 70 17 48 20 156 5 165 -5 3 -10 15 -10
25 0 22 47 29 134 21z"/>
<path d="M640 1349 c0 -5 27 -9 60 -9 33 0 60 4 60 9 0 4 -27 8 -60 9 -33 0
-60 -4 -60 -9z"/>
<path d="M655 1320 c3 -5 26 -10 51 -10 24 0 44 5 44 10 0 6 -23 10 -51 10
-31 0 -48 -4 -44 -10z"/>
<path d="M666 1284 c-3 -9 -6 -37 -6 -64 l0 -47 51 -2 50 -1 -6 48 c-11 78
-13 82 -50 82 -21 0 -35 -6 -39 -16z"/>
<path d="M646 1144 c-15 -40 -9 -44 69 -44 41 0 75 2 75 5 0 2 -5 16 -12 30
-10 23 -17 25 -69 25 -43 0 -58 -4 -63 -16z"/>
<path d="M917 1413 c-4 -3 -7 -84 -7 -180 l0 -173 190 0 190 0 0 180 0 180
-183 0 c-101 0 -187 -3 -190 -7z m278 -47 c19 -13 18 -14 -7 -9 -22 4 -30 0
-39 -21 -10 -21 -19 -26 -50 -26 -23 0 -39 5 -42 14 -4 11 -1 13 11 9 13 -4
12 -2 -3 10 -11 9 -28 17 -38 17 -10 0 -16 4 -13 9 10 15 159 13 181 -3z
m-163 -31 c0 -5 -5 -11 -11 -13 -6 -2 -11 4 -11 13 0 9 5 15 11 13 6 -2 11 -8
11 -13z m155 -11 c-9 -9 -28 6 -21 18 4 6 10 6 17 -1 6 -6 8 -13 4 -17z m24
-7 c-10 -9 -11 -8 -5 6 3 10 9 15 12 12 3 -3 0 -11 -7 -18z m-161 -11 c0 -3
-4 -8 -10 -11 -5 -3 -10 -1 -10 4 0 6 5 11 10 11 6 0 10 -2 10 -4z m120 -6 c0
-5 -2 -10 -4 -10 -3 0 -8 5 -11 10 -3 6 -1 10 4 10 6 0 11 -4 11 -10z m-103
-162 c-2 -29 -3 -6 -3 52 0 58 1 81 3 53 2 -29 2 -77 0 -105z m42 52 c-1 -100
-15 -133 -17 -43 -2 53 7 143 14 143 3 0 4 -45 3 -100z m28 -52 c-2 -29 -3 -6
-3 52 0 58 1 81 3 53 2 -29 2 -77 0 -105z"/>
<path d="M1088 1353 c6 -2 18 -2 25 0 6 3 1 5 -13 5 -14 0 -19 -2 -12 -5z"/>
<path d="M1098 1333 c6 -2 18 -2 25 0 6 3 1 5 -13 5 -14 0 -19 -2 -12 -5z"/>
<path d="M510 860 l0 -180 190 0 190 0 0 180 0 180 -190 0 -190 0 0 -180z m70
90 c-8 -5 -10 -15 -6 -26 5 -14 4 -16 -4 -8 -14 14 -3 57 12 48 7 -4 6 -9 -2
-14z m140 -12 c0 -6 7 -19 16 -29 15 -17 17 -17 45 3 24 18 33 20 54 10 29
-13 34 -52 9 -72 -12 -11 -15 -11 -12 1 2 8 7 17 12 20 15 11 -2 39 -24 39
-29 0 -38 -29 -14 -48 12 -9 13 -13 4 -10 -8 3 -21 15 -27 29 -10 19 -13 20
-13 6 0 -16 -9 -18 -87 -17 -115 2 -115 2 -108 -10 4 -6 14 -10 23 -8 10 1 29
-6 44 -16 20 -13 38 -17 65 -12 21 3 56 7 78 10 l40 5 -40 -10 c-80 -20 -114
-22 -140 -5 -13 9 -33 16 -43 16 -24 0 -46 25 -37 40 4 7 19 9 37 5 25 -6 34
-2 66 33 35 37 52 44 52 20z m60 -170 c0 -14 -17 -8 -35 12 -17 19 -17 19 9 7
14 -7 26 -15 26 -19z m-140 8 c0 -3 -4 -8 -10 -11 -5 -3 -10 -1 -10 4 0 6 5
11 10 11 6 0 10 -2 10 -4z m67 -12 c-3 -3 -12 -4 -19 -1 -8 3 -5 6 6 6 11 1
17 -2 13 -5z"/>
<path d="M664 895 c-18 -13 -15 -14 30 -15 42 0 47 2 36 15 -16 19 -41 19 -66
0z"/>
<path d="M920 860 l0 -180 185 0 185 0 0 180 0 180 -185 0 -185 0 0 -180z
m233 133 c-7 -2 -21 -2 -30 0 -10 3 -4 5 12 5 17 0 24 -2 18 -5z m52 -3 c4 -6
11 -8 16 -5 5 4 9 1 9 -4 0 -15 -13 -14 -36 4 -10 8 -14 15 -7 15 6 0 15 -5
18 -10z m-115 -3 c0 -2 -10 -12 -21 -23 -22 -19 -22 -19 -10 4 10 18 31 31 31
19z m146 -42 c-8 -8 -19 -15 -25 -15 -6 0 -8 7 -5 15 4 8 15 15 26 15 17 0 18
-2 4 -15z m-49 -1 c-3 -3 -12 -4 -19 -1 -8 3 -5 6 6 6 11 1 17 -2 13 -5z m-91
-25 c7 -11 -18 -69 -29 -69 -4 0 -3 10 4 21 10 20 9 21 -10 16 -12 -3 -19 -1
-15 4 3 5 14 9 25 9 10 0 19 5 19 10 0 6 -9 10 -19 10 -11 0 -22 4 -25 9 -3 4
6 6 19 3 14 -2 28 -8 31 -13z m-80 -21 c4 -7 4 -10 -1 -6 -4 4 -14 3 -22 -3
-8 -8 -13 -8 -13 -1 0 6 6 13 13 15 6 3 13 6 14 6 1 1 5 -5 9 -11z m145 -31
c-10 -9 -11 -8 -5 6 3 10 9 15 12 12 3 -3 0 -11 -7 -18z m-111 -9 c0 -13 -23
-5 -28 10 -2 7 2 10 12 6 9 -3 16 -11 16 -16z m-63 -25 c-3 -10 -5 -4 -5 12 0
17 2 24 5 18 2 -7 2 -21 0 -30z m160 2 c0 -5 -11 -11 -23 -11 -14 -1 -21 3
-18 10 6 14 41 16 41 1z m-20 -79 c18 -7 33 9 33 38 0 14 3 17 10 10 15 -15
-8 -64 -28 -64 -27 0 -50 29 -43 53 5 21 6 20 9 -5 2 -14 10 -29 19 -32z
m-130 7 c-3 -10 -5 -4 -5 12 0 17 2 24 5 18 2 -7 2 -21 0 -30z m47 18 c3 -5
-1 -11 -9 -14 -9 -4 -12 -1 -8 9 6 16 10 17 17 5z m32 -7 c-3 -8 -2 -12 4 -9
6 3 10 -1 10 -9 0 -18 -8 -20 -28 -8 -14 9 -6 42 10 42 6 0 7 -7 4 -16z m-44
-56 c-11 -11 -32 -3 -32 12 0 4 9 6 21 3 13 -4 17 -9 11 -15z"/>
<path d="M510 611 c0 -96 45 -173 149 -254 63 -49 163 -111 204 -126 l27 -11
0 220 0 220 -190 0 -190 0 0 -49z m305 -11 c15 -16 17 -30 11 -76 -5 -46 -3
-60 11 -76 20 -22 8 -51 -23 -55 -15 -2 -14 -1 4 7 36 15 28 40 -10 35 -22 -4
-27 -3 -15 3 15 6 20 22 23 78 6 86 -4 100 -68 90 -41 -6 -43 -8 -44 -44 -1
-20 -5 -66 -9 -102 -6 -53 -4 -68 8 -78 10 -9 17 -10 22 -2 3 5 1 10 -4 10 -6
0 -11 7 -11 15 0 15 46 32 57 21 4 -3 -1 -6 -10 -6 -10 0 -17 -8 -17 -20 0
-17 5 -19 28 -15 22 4 20 2 -8 -9 -45 -19 -46 -19 -64 0 -18 17 -21 77 -7 137
8 35 8 37 -15 37 -17 0 -24 6 -24 19 0 24 13 33 60 42 62 12 86 10 105 -11z"/>
<path d="M660 575 c0 -8 4 -15 9 -15 5 0 11 7 15 15 3 9 0 15 -9 15 -8 0 -15
-7 -15 -15z"/>
<path d="M916 653 c-8 -8 -7 -433 1 -433 3 0 39 18 79 41 194 106 294 225 294
347 l0 52 -183 0 c-101 0 -187 -3 -191 -7z m234 -68 c29 -15 57 -52 47 -62 -3
-2 -8 5 -12 16 -7 22 -43 47 -53 37 -3 -4 0 -12 6 -18 7 -7 12 -16 12 -22 0
-5 -6 -2 -13 8 -7 10 -29 22 -47 27 l-35 8 33 -3 c18 -1 35 1 38 6 3 4 -16 8
-41 8 -35 0 -46 -3 -42 -13 3 -7 -1 -21 -9 -32 -21 -29 -17 -61 12 -84 14 -11
30 -22 37 -24 7 -2 8 -8 3 -13 -5 -5 -11 -4 -13 4 -3 6 -11 12 -19 12 -7 0
-19 9 -26 20 -7 11 -20 20 -28 20 -9 0 -11 3 -5 8 14 10 38 82 31 89 -11 11
-56 -40 -56 -63 0 -39 12 -56 54 -75 23 -10 34 -19 26 -19 -8 0 -30 9 -47 20
-57 34 -57 106 0 140 39 24 106 26 147 5z m-11 -122 c-36 -30 -45 -29 -14 2
14 13 25 32 26 42 0 16 1 16 8 -2 6 -14 1 -25 -20 -42z m32 -15 c-17 -15 -41
-27 -54 -27 -20 1 -20 2 -2 6 35 9 65 35 72 62 6 22 8 23 11 6 3 -12 -7 -29
-27 -47z"/>
<path d="M85 1110 c-3 -5 -4 -10 -1 -10 2 0 11 -3 20 -6 11 -4 16 -1 16 10 0
18 -25 22 -35 6z"/>
<path d="M840 74 c0 -8 5 -12 10 -9 6 3 10 10 10 16 0 5 -4 9 -10 9 -5 0 -10
-7 -10 -16z"/>
</g>
</svg>
