<?xml version="1.0" standalone="no"?>
<!DOCTYPE svg PUBLIC "-//W3C//DTD SVG 20010904//EN"
 "http://www.w3.org/TR/2001/REC-SVG-20010904/DTD/svg10.dtd">
<svg version="1.0" xmlns="http://www.w3.org/2000/svg"
 width="398.000000pt" height="180.000000pt" viewBox="0 0 398.000000 180.000000"
 preserveAspectRatio="xMidYMid meet">

<g transform="translate(0.000000,180.000000) scale(0.100000,-0.100000)"
fill="#000000" stroke="none">
<path d="M2325 1791 c-6 -5 -174 -64 -375 -131 -201 -67 -375 -126 -387 -131
-21 -8 -20 -10 30 -139 45 -115 54 -131 72 -127 34 8 769 249 781 256 13 7
-85 281 -101 281 -6 0 -15 -4 -20 -9z"/>
<path d="M815 210 c-68 -27 -79 -137 -20 -188 61 -53 155 -6 155 77 0 90 -63
141 -135 111z m93 -38 c30 -40 27 -97 -8 -132 -27 -27 -66 -25 -95 5 -56 55
-14 165 58 151 18 -3 38 -14 45 -24z"/>
<path d="M2055 211 c-40 -17 -60 -51 -60 -101 0 -40 5 -54 29 -79 73 -76 185
-1 161 108 -12 55 -81 93 -130 72z m69 -23 c56 -25 52 -135 -4 -158 -37 -15
-86 1 -96 32 -14 47 -6 92 21 115 30 26 43 28 79 11z"/>
<path d="M3500 213 c-72 -28 -90 -122 -36 -186 31 -36 92 -38 124 -4 21 22 29
47 16 47 -4 0 -17 -11 -30 -25 -50 -54 -114 -17 -114 66 0 39 5 51 26 68 35
28 60 26 89 -4 16 -18 26 -22 30 -14 17 27 -65 68 -105 52z"/>
<path d="M0 105 l0 -105 80 0 c64 0 80 3 80 15 0 12 -14 15 -65 15 l-65 0 0
35 0 35 54 0 c30 0 58 5 61 10 4 6 -17 10 -54 10 l-61 0 0 35 0 35 60 0 c33 0
60 4 60 10 0 6 -32 10 -75 10 l-75 0 0 -105z"/>
<path d="M200 204 c0 -3 14 -24 31 -46 l32 -40 -42 -59 c-26 -36 -36 -59 -28
-59 7 0 29 21 47 46 l33 47 28 -34 c16 -19 29 -40 29 -46 0 -14 30 -18 30 -5
0 5 -16 30 -34 57 -19 27 -32 53 -29 59 4 6 19 28 36 49 37 48 14 49 -27 1
l-32 -37 -27 37 c-25 32 -47 46 -47 30z"/>
<path d="M400 105 c0 -63 4 -105 10 -105 6 0 10 20 10 45 l0 45 45 0 c35 0 52
6 70 25 29 28 31 42 9 73 -13 19 -24 22 -80 22 l-64 0 0 -105z m128 54 c4 -35
-19 -51 -65 -47 -36 3 -38 5 -41 41 l-3 38 53 -3 c49 -3 53 -5 56 -29z"/>
<path d="M600 105 l0 -105 60 0 c47 0 60 3 60 15 0 11 -12 15 -50 15 l-50 0 0
90 c0 53 -4 90 -10 90 -6 0 -10 -42 -10 -105z"/>
<path d="M990 105 c0 -87 3 -105 15 -105 11 0 15 12 15 51 l0 50 33 -3 c26 -2
38 -12 62 -50 17 -26 36 -47 43 -47 19 -1 15 12 -18 57 -34 48 -36 52 -15 52
16 0 35 30 35 54 0 32 -30 46 -101 46 l-69 0 0 -105z m138 56 c5 -30 -12 -41
-65 -41 l-43 0 0 38 0 38 53 -6 c45 -4 52 -8 55 -29z"/>
<path d="M1210 105 l0 -105 75 0 c62 0 75 3 75 16 0 12 -10 15 -47 14 -84 -3
-83 -3 -83 35 l0 35 60 0 c33 0 60 4 60 10 0 6 -27 10 -60 10 l-60 0 0 35 0
35 65 0 c37 0 65 4 65 10 0 6 -32 10 -75 10 l-75 0 0 -105z"/>
<path d="M1490 105 c0 -87 3 -105 15 -105 12 0 15 18 15 105 0 87 -3 105 -15
105 -12 0 -15 -18 -15 -105z"/>
<path d="M1570 105 c0 -127 18 -142 22 -18 l3 86 53 -76 c28 -42 52 -81 52
-87 0 -5 7 -10 15 -10 12 0 15 18 15 105 0 124 -18 143 -22 24 l-3 -81 -53 81
c-72 111 -82 108 -82 -24z"/>
<path d="M1788 203 c-8 -16 4 -203 13 -203 5 0 9 39 9 88 l0 87 58 -87 c31
-48 63 -88 70 -88 9 0 12 28 12 105 0 77 -3 105 -12 105 -9 0 -13 -21 -12 -73
0 -39 -1 -75 -3 -80 -2 -4 -28 28 -56 70 -50 73 -71 93 -79 76z"/>
<path d="M2251 109 c21 -55 39 -102 39 -105 0 -2 6 -4 13 -4 6 0 30 47 53 105
27 69 36 105 28 105 -7 0 -27 -41 -45 -90 -18 -50 -35 -87 -39 -83 -4 4 -20
45 -35 91 -16 45 -34 82 -41 82 -8 0 1 -34 27 -101z"/>
<path d="M2426 116 c-38 -101 -42 -116 -27 -116 5 0 15 16 21 35 11 33 14 35
59 35 45 0 48 -2 60 -35 12 -34 31 -48 31 -22 -1 28 -78 192 -92 195 -11 2
-25 -24 -52 -92z m64 49 c5 -14 13 -37 16 -50 6 -23 3 -25 -31 -25 -25 0 -35
4 -31 13 2 6 10 29 17 50 7 20 14 37 16 37 2 0 8 -11 13 -25z"/>
<path d="M2565 200 c3 -5 22 -10 41 -10 l34 0 0 -95 c0 -57 4 -95 10 -95 6 0
10 38 10 95 l0 95 35 0 c19 0 35 5 35 10 0 6 -35 10 -86 10 -54 0 -83 -4 -79
-10z"/>
<path d="M2761 105 l1 -105 80 0 c59 0 79 3 75 13 -2 8 -25 12 -65 12 l-62 0
0 38 0 37 54 0 c30 0 58 5 61 10 4 6 -17 10 -54 10 l-61 0 0 35 0 35 60 0 c33
0 60 4 60 10 0 6 -32 10 -75 10 l-75 0 1 -105z"/>
<path d="M3044 105 l-1 -105 79 0 c64 0 78 3 78 16 0 13 -11 15 -62 13 l-63
-3 -3 37 -3 37 55 0 c30 0 58 5 61 10 4 6 -17 10 -54 10 l-61 0 0 35 0 35 60
0 c33 0 60 4 60 10 0 6 -31 10 -72 10 l-73 0 -1 -105z"/>
<path d="M3246 198 c4 -7 18 -27 30 -45 13 -17 24 -35 24 -40 0 -4 -16 -28
-35 -52 -19 -24 -35 -48 -35 -52 0 -20 19 -6 49 36 18 25 34 45 36 45 2 0 18
-20 36 -45 49 -69 67 -56 20 14 l-40 59 35 46 c24 32 30 46 20 46 -8 0 -20 -8
-25 -17 -6 -10 -18 -27 -26 -38 -15 -19 -16 -18 -46 18 -29 35 -59 52 -43 25z"/>
<path d="M3658 203 c0 -5 -2 -52 -3 -105 l-3 -98 79 0 c64 0 79 3 79 15 0 12
-14 15 -65 15 l-65 0 0 35 0 35 54 0 c30 0 58 5 61 10 4 6 -17 10 -54 10 l-61
0 0 35 0 35 59 0 c33 0 63 5 66 10 4 6 -22 10 -69 10 -42 0 -77 -3 -78 -7z"/>
<path d="M3850 105 l0 -105 65 0 c51 0 65 3 65 15 0 12 -13 15 -55 15 l-55 0
0 90 c0 53 -4 90 -10 90 -6 0 -10 -42 -10 -105z"/>
</g>
</svg>
